<svg xmlns="http://www.w3.org/2000/svg" width="375" viewBox="0 0 375 375" height="375" version="1.0"><defs><clipPath id="a"><path d="M 30.253906 30.253906 L 344.503906 30.253906 L 344.503906 344.503906 L 30.253906 344.503906 Z M 30.253906 30.253906"/></clipPath></defs><g clip-path="url(#a)"><path fill="#FFF" d="M 344.503906 187.378906 C 344.503906 189.953125 344.441406 192.523438 344.316406 195.089844 C 344.191406 197.660156 344 200.222656 343.75 202.78125 C 343.496094 205.339844 343.183594 207.890625 342.804688 210.4375 C 342.425781 212.980469 341.988281 215.511719 341.488281 218.035156 C 340.984375 220.554688 340.421875 223.066406 339.796875 225.558594 C 339.171875 228.054688 338.488281 230.53125 337.738281 232.992188 C 336.992188 235.453125 336.1875 237.894531 335.320312 240.316406 C 334.453125 242.734375 333.527344 245.132812 332.546875 247.511719 C 331.5625 249.886719 330.519531 252.234375 329.421875 254.558594 C 328.320312 256.886719 327.164062 259.179688 325.953125 261.449219 C 324.742188 263.714844 323.472656 265.953125 322.152344 268.160156 C 320.828125 270.363281 319.453125 272.535156 318.023438 274.675781 C 316.597656 276.8125 315.117188 278.914062 313.585938 280.980469 C 312.054688 283.046875 310.472656 285.070312 308.839844 287.058594 C 307.207031 289.046875 305.53125 290.992188 303.800781 292.898438 C 302.074219 294.804688 300.304688 296.667969 298.484375 298.484375 C 296.667969 300.304688 294.804688 302.074219 292.898438 303.800781 C 290.992188 305.53125 289.046875 307.207031 287.058594 308.839844 C 285.070312 310.472656 283.046875 312.054688 280.980469 313.585938 C 278.914062 315.117188 276.8125 316.597656 274.675781 318.023438 C 272.535156 319.453125 270.363281 320.828125 268.160156 322.152344 C 265.953125 323.472656 263.714844 324.742188 261.449219 325.953125 C 259.179688 327.164062 256.886719 328.320312 254.558594 329.417969 C 252.234375 330.519531 249.886719 331.5625 247.511719 332.546875 C 245.132812 333.527344 242.734375 334.453125 240.316406 335.320312 C 237.894531 336.1875 235.453125 336.992188 232.992188 337.738281 C 230.53125 338.488281 228.054688 339.171875 225.558594 339.796875 C 223.066406 340.421875 220.554688 340.984375 218.035156 341.488281 C 215.511719 341.988281 212.980469 342.425781 210.4375 342.804688 C 207.890625 343.183594 205.339844 343.496094 202.78125 343.75 C 200.222656 344 197.660156 344.191406 195.089844 344.316406 C 192.523438 344.441406 189.953125 344.503906 187.378906 344.503906 C 184.808594 344.503906 182.238281 344.441406 179.671875 344.316406 C 177.101562 344.191406 174.539062 344 171.980469 343.75 C 169.421875 343.496094 166.871094 343.183594 164.324219 342.804688 C 161.78125 342.425781 159.25 341.988281 156.726562 341.488281 C 154.203125 340.984375 151.695312 340.421875 149.203125 339.796875 C 146.707031 339.171875 144.230469 338.488281 141.769531 337.738281 C 139.308594 336.992188 136.867188 336.1875 134.445312 335.320312 C 132.027344 334.453125 129.628906 333.527344 127.25 332.546875 C 124.875 331.5625 122.527344 330.519531 120.199219 329.421875 C 117.875 328.320312 115.582031 327.164062 113.3125 325.953125 C 111.042969 324.742188 108.808594 323.472656 106.601562 322.152344 C 104.398438 320.828125 102.226562 319.453125 100.085938 318.023438 C 97.949219 316.597656 95.847656 315.117188 93.78125 313.585938 C 91.714844 312.054688 89.6875 310.472656 87.703125 308.839844 C 85.714844 307.207031 83.765625 305.53125 81.863281 303.800781 C 79.957031 302.074219 78.09375 300.304688 76.277344 298.484375 C 74.457031 296.667969 72.6875 294.804688 70.957031 292.898438 C 69.230469 290.992188 67.554688 289.046875 65.921875 287.058594 C 64.289062 285.070312 62.707031 283.046875 61.175781 280.980469 C 59.644531 278.914062 58.164062 276.8125 56.734375 274.675781 C 55.308594 272.535156 53.933594 270.363281 52.609375 268.160156 C 51.289062 265.953125 50.019531 263.714844 48.808594 261.449219 C 47.597656 259.179688 46.441406 256.886719 45.339844 254.558594 C 44.242188 252.234375 43.199219 249.886719 42.214844 247.511719 C 41.230469 245.132812 40.308594 242.734375 39.441406 240.316406 C 38.574219 237.894531 37.769531 235.453125 37.019531 232.992188 C 36.273438 230.53125 35.589844 228.054688 34.964844 225.558594 C 34.339844 223.066406 33.777344 220.554688 33.273438 218.035156 C 32.773438 215.511719 32.332031 212.980469 31.957031 210.4375 C 31.578125 207.890625 31.265625 205.339844 31.011719 202.78125 C 30.761719 200.222656 30.570312 197.660156 30.445312 195.089844 C 30.320312 192.523438 30.253906 189.953125 30.253906 187.378906 C 30.253906 184.808594 30.320312 182.238281 30.445312 179.671875 C 30.570312 177.101562 30.761719 174.539062 31.011719 171.980469 C 31.265625 169.421875 31.578125 166.871094 31.957031 164.324219 C 32.332031 161.78125 32.773438 159.25 33.273438 156.726562 C 33.777344 154.203125 34.339844 151.695312 34.964844 149.203125 C 35.589844 146.707031 36.273438 144.230469 37.019531 141.769531 C 37.769531 139.308594 38.574219 136.867188 39.441406 134.445312 C 40.308594 132.027344 41.230469 129.628906 42.214844 127.25 C 43.199219 124.875 44.242188 122.527344 45.339844 120.199219 C 46.441406 117.875 47.597656 115.582031 48.808594 113.3125 C 50.019531 111.042969 51.289062 108.808594 52.609375 106.601562 C 53.933594 104.398438 55.308594 102.226562 56.734375 100.085938 C 58.164062 97.949219 59.644531 95.847656 61.175781 93.78125 C 62.707031 91.714844 64.289062 89.6875 65.921875 87.703125 C 67.554688 85.714844 69.230469 83.765625 70.957031 81.863281 C 72.6875 79.957031 74.457031 78.09375 76.277344 76.277344 C 78.09375 74.457031 79.957031 72.6875 81.863281 70.957031 C 83.765625 69.230469 85.714844 67.550781 87.703125 65.921875 C 89.6875 64.289062 91.714844 62.707031 93.78125 61.175781 C 95.847656 59.644531 97.949219 58.164062 100.085938 56.734375 C 102.226562 55.308594 104.398438 53.933594 106.601562 52.609375 C 108.808594 51.289062 111.042969 50.019531 113.3125 48.808594 C 115.582031 47.597656 117.875 46.441406 120.199219 45.339844 C 122.527344 44.242188 124.875 43.199219 127.25 42.214844 C 129.628906 41.230469 132.027344 40.308594 134.445312 39.441406 C 136.867188 38.574219 139.308594 37.769531 141.769531 37.019531 C 144.230469 36.273438 146.707031 35.589844 149.203125 34.964844 C 151.695312 34.339844 154.203125 33.777344 156.726562 33.273438 C 159.25 32.773438 161.78125 32.332031 164.324219 31.957031 C 166.871094 31.578125 169.421875 31.265625 171.980469 31.011719 C 174.539062 30.761719 177.101562 30.570312 179.671875 30.445312 C 182.238281 30.320312 184.808594 30.253906 187.378906 30.253906 C 189.953125 30.253906 192.523438 30.320312 195.089844 30.445312 C 197.660156 30.570312 200.222656 30.761719 202.78125 31.011719 C 205.339844 31.265625 207.890625 31.578125 210.4375 31.957031 C 212.980469 32.332031 215.511719 32.773438 218.035156 33.273438 C 220.554688 33.777344 223.066406 34.339844 225.558594 34.964844 C 228.054688 35.589844 230.53125 36.273438 232.992188 37.019531 C 235.453125 37.769531 237.894531 38.574219 240.316406 39.441406 C 242.734375 40.308594 245.132812 41.230469 247.511719 42.214844 C 249.886719 43.199219 252.234375 44.242188 254.558594 45.339844 C 256.886719 46.441406 259.179688 47.597656 261.449219 48.808594 C 263.714844 50.019531 265.953125 51.289062 268.160156 52.609375 C 270.363281 53.933594 272.535156 55.308594 274.675781 56.734375 C 276.8125 58.164062 278.914062 59.644531 280.980469 61.175781 C 283.046875 62.707031 285.070312 64.289062 287.058594 65.921875 C 289.046875 67.550781 290.992188 69.230469 292.898438 70.957031 C 294.804688 72.6875 296.667969 74.457031 298.484375 76.277344 C 300.304688 78.09375 302.074219 79.957031 303.800781 81.863281 C 305.53125 83.765625 307.207031 85.714844 308.839844 87.703125 C 310.472656 89.6875 312.054688 91.714844 313.585938 93.78125 C 315.117188 95.847656 316.597656 97.949219 318.023438 100.085938 C 319.453125 102.226562 320.828125 104.398438 322.152344 106.601562 C 323.472656 108.808594 324.742188 111.042969 325.953125 113.3125 C 327.164062 115.582031 328.320312 117.875 329.421875 120.199219 C 330.519531 122.527344 331.5625 124.875 332.546875 127.25 C 333.527344 129.628906 334.453125 132.027344 335.320312 134.445312 C 336.1875 136.867188 336.992188 139.308594 337.738281 141.769531 C 338.488281 144.230469 339.171875 146.707031 339.796875 149.203125 C 340.421875 151.695312 340.984375 154.203125 341.488281 156.726562 C 341.988281 159.25 342.425781 161.78125 342.804688 164.324219 C 343.183594 166.871094 343.496094 169.421875 343.75 171.980469 C 344 174.539062 344.191406 177.101562 344.316406 179.671875 C 344.441406 182.238281 344.503906 184.808594 344.503906 187.378906 Z M 344.503906 187.378906"/></g><path fill="#FFF" d="M 159.726562 98.34375 C 136.890625 106.304688 117.199219 123.273438 106.304688 145.0625 C 102.53125 152.605469 99.808594 160.355469 98.132812 168.734375 C 93.945312 189.265625 96.875 211.054688 106.304688 229.699219 C 112.378906 241.851562 121.179688 252.746094 131.863281 261.125 C 141.917969 269.085938 153.652344 275.160156 166.011719 278.304688 C 181.722656 282.492188 198.484375 282.285156 214.195312 278.722656 C 228.441406 275.371094 242.058594 268.667969 252.953125 258.609375 C 264.476562 248.136719 272.4375 234.308594 276.835938 219.433594 C 281.445312 203.300781 282.074219 185.914062 279.140625 169.363281 C 249.601562 169.363281 220.0625 169.363281 190.523438 169.363281 C 190.523438 181.722656 190.523438 193.875 190.523438 206.234375 C 207.703125 206.234375 224.671875 206.234375 241.851562 206.234375 C 239.964844 217.96875 232.84375 228.863281 222.996094 235.355469 C 216.710938 239.546875 209.585938 242.269531 202.253906 243.527344 C 194.921875 244.785156 187.171875 244.992188 179.628906 243.527344 C 172.085938 242.058594 164.964844 238.917969 158.679688 234.308594 C 148.625 227.1875 140.871094 216.921875 137.101562 205.398438 C 133.121094 193.664062 133.121094 180.46875 137.101562 168.734375 C 140.035156 160.566406 144.644531 152.8125 150.71875 146.527344 C 158.261719 138.777344 168.105469 133.121094 179 130.816406 C 188.21875 128.929688 197.644531 129.140625 206.65625 131.863281 C 214.195312 134.167969 221.109375 138.359375 226.976562 143.804688 C 232.84375 137.9375 238.5 132.28125 244.363281 126.417969 C 247.507812 123.273438 250.648438 120.339844 253.582031 117.199219 C 244.785156 109.027344 234.519531 102.53125 223.207031 98.34375 C 202.882812 91.429688 180.257812 91.21875 159.726562 98.34375 Z M 159.726562 98.34375"/><path fill="#EA4335" d="M 159.726562 98.550781 C 180.046875 91.640625 202.882812 91.640625 223.207031 99.179688 C 234.308594 103.371094 244.785156 109.65625 253.375 118.035156 C 250.441406 121.179688 247.296875 124.113281 244.363281 127.253906 C 238.5 133.121094 232.84375 138.777344 226.976562 144.644531 C 221.320312 139.195312 214.40625 135.003906 206.65625 132.703125 C 197.855469 129.976562 188.007812 129.558594 179 131.652344 C 168.527344 133.957031 158.46875 139.613281 150.925781 147.367188 C 144.851562 153.652344 140.035156 161.191406 137.308594 169.574219 C 127.042969 161.613281 116.777344 153.652344 106.515625 145.691406 C 117.40625 123.484375 136.890625 106.304688 159.726562 98.550781 Z M 159.726562 98.550781"/><path fill="#FBBC05" d="M 98.34375 168.734375 C 100.019531 160.566406 102.742188 152.605469 106.515625 145.0625 C 116.777344 153.023438 127.042969 160.984375 137.308594 168.945312 C 133.328125 180.675781 133.328125 193.875 137.308594 205.605469 C 127.042969 213.566406 116.777344 221.527344 106.515625 229.488281 C 97.085938 211.054688 94.152344 189.265625 98.34375 168.734375 Z M 98.34375 168.734375"/><path fill="#4285F4" d="M 190.523438 169.78125 C 220.0625 169.78125 249.601562 169.78125 279.140625 169.78125 C 282.074219 186.332031 281.445312 203.511719 276.835938 219.644531 C 272.4375 234.519531 264.476562 248.136719 252.953125 258.820312 C 242.898438 251.070312 233.050781 243.316406 222.996094 235.566406 C 232.84375 228.863281 239.753906 218.175781 241.851562 206.445312 C 224.671875 206.445312 207.703125 206.445312 190.523438 206.445312 C 190.523438 194.292969 190.523438 181.933594 190.523438 169.78125 Z M 190.523438 169.78125"/><path fill="#34A853" d="M 106.515625 229.699219 C 116.777344 221.738281 127.042969 213.777344 137.308594 205.816406 C 141.289062 217.339844 148.832031 227.605469 158.890625 234.726562 C 165.171875 239.128906 172.296875 242.269531 179.839844 243.734375 C 187.171875 245.203125 194.921875 244.992188 202.253906 243.734375 C 209.585938 242.480469 216.710938 239.753906 222.996094 235.566406 C 233.050781 243.316406 242.898438 251.070312 252.953125 258.820312 C 242.058594 268.875 228.652344 275.582031 214.40625 278.933594 C 198.695312 282.492188 181.933594 282.703125 166.222656 278.511719 C 153.859375 275.160156 142.128906 269.296875 132.074219 261.335938 C 121.386719 252.746094 112.589844 241.640625 106.515625 229.699219 Z M 106.515625 229.699219"/></svg>