<svg xmlns="http://www.w3.org/2000/svg" width="375" viewBox="0 0 375 375" height="375" version="1.0"><defs><clipPath id="a"><path d="M 20 132.578125 L 104 132.578125 L 104 218 L 20 218 Z M 20 132.578125"/></clipPath><clipPath id="b"><path d="M 226 162 L 280 162 L 280 242.078125 L 226 242.078125 Z M 226 162"/></clipPath></defs><path fill="#FFF" d="M-37.5 -37.5H412.5V412.5H-37.5z"/><path fill="#FFF" d="M-37.5 -37.5H412.5V412.5H-37.5z"/><path fill="#FFF" d="M-37.5 -37.5H412.5V412.5H-37.5z"/><g clip-path="url(#a)"><path fill="#4885ED" d="M 102.394531 171.296875 L 63.328125 171.296875 L 63.328125 182.851562 L 91.039062 182.851562 C 89.664062 199.027344 76.144531 205.972656 63.375 205.972656 C 62.367188 205.976562 61.359375 205.929688 60.355469 205.835938 C 59.351562 205.742188 58.355469 205.597656 57.363281 205.402344 C 56.375 205.207031 55.394531 204.964844 54.429688 204.675781 C 53.464844 204.382812 52.515625 204.046875 51.585938 203.660156 C 50.652344 203.277344 49.742188 202.847656 48.851562 202.371094 C 47.964844 201.894531 47.101562 201.378906 46.261719 200.816406 C 45.425781 200.257812 44.617188 199.65625 43.839844 199.015625 C 43.0625 198.375 42.320312 197.695312 41.609375 196.984375 C 40.898438 196.269531 40.226562 195.519531 39.589844 194.738281 C 38.953125 193.960938 38.359375 193.148438 37.804688 192.308594 C 37.25 191.46875 36.738281 190.601562 36.269531 189.710938 C 35.800781 188.820312 35.378906 187.910156 35 186.976562 C 34.621094 186.046875 34.292969 185.097656 34.007812 184.132812 C 33.726562 183.167969 33.492188 182.1875 33.304688 181.199219 C 33.121094 180.210938 32.984375 179.21875 32.898438 178.214844 C 32.8125 177.214844 32.773438 176.210938 32.789062 175.203125 C 32.789062 157.707031 46.375 144.238281 63.414062 144.238281 C 76.554688 144.238281 84.300781 152.589844 84.300781 152.589844 L 92.414062 144.210938 C 92.414062 144.210938 81.992188 132.648438 62.988281 132.648438 C 38.789062 132.648438 20.070312 153.007812 20.070312 175 C 20.070312 196.546875 37.679688 217.558594 63.597656 217.558594 C 86.402344 217.558594 103.09375 201.988281 103.09375 178.960938 C 103.09375 174.101562 102.382812 171.296875 102.382812 171.296875 Z M 102.394531 171.296875"/></g><path fill="#DB3236" d="M 134.402344 162.925781 C 118.371094 162.925781 106.878906 175.421875 106.878906 189.988281 C 106.878906 204.777344 118.019531 217.503906 134.589844 217.503906 C 149.585938 217.503906 161.871094 206.078125 161.871094 190.304688 C 161.871094 172.265625 147.582031 162.921875 134.402344 162.921875 Z M 134.558594 173.644531 C 142.441406 173.644531 149.910156 180 149.910156 190.238281 C 149.910156 200.253906 142.472656 206.792969 134.519531 206.792969 C 125.785156 206.792969 118.917969 199.820312 118.917969 190.15625 C 118.917969 180.699219 125.722656 173.644531 134.582031 173.644531 Z M 134.558594 173.644531"/><path fill="#F4C20D" d="M 194.253906 162.925781 C 178.222656 162.925781 166.734375 175.421875 166.734375 189.988281 C 166.734375 204.777344 177.875 217.503906 194.441406 217.503906 C 209.441406 217.503906 221.726562 206.078125 221.726562 190.304688 C 221.726562 172.265625 207.433594 162.921875 194.253906 162.921875 Z M 194.410156 173.644531 C 202.292969 173.644531 209.765625 180 209.765625 190.238281 C 209.765625 200.253906 202.324219 206.792969 194.375 206.792969 C 185.636719 206.792969 178.773438 199.820312 178.773438 190.15625 C 178.773438 180.699219 185.574219 173.644531 194.4375 173.644531 Z M 194.410156 173.644531"/><g clip-path="url(#b)"><path fill="#4885ED" d="M 252.960938 162.957031 C 238.246094 162.957031 226.679688 175.804688 226.679688 190.226562 C 226.679688 206.652344 240.089844 217.542969 252.703125 217.542969 C 260.507812 217.542969 264.65625 214.457031 267.683594 210.914062 L 267.683594 216.292969 C 267.683594 225.710938 261.949219 231.351562 253.292969 231.351562 C 244.929688 231.351562 240.734375 225.152344 239.25 221.636719 L 228.726562 225.992188 C 232.460938 233.859375 239.972656 242.0625 253.378906 242.0625 C 268.046875 242.0625 279.160156 232.878906 279.160156 213.609375 L 279.160156 164.597656 L 267.726562 164.597656 L 267.726562 169.21875 C 264.199219 165.421875 259.371094 162.957031 252.96875 162.957031 Z M 254.023438 173.65625 C 261.234375 173.65625 268.644531 179.796875 268.644531 190.285156 C 268.644531 200.945312 261.25 206.820312 253.863281 206.820312 C 246.019531 206.820312 238.71875 200.472656 238.71875 190.382812 C 238.71875 179.90625 246.300781 173.65625 254.023438 173.65625 Z M 254.023438 173.65625"/></g><path fill="#DB3236" d="M 330.261719 162.890625 C 316.378906 162.890625 304.726562 173.902344 304.726562 190.140625 C 304.726562 207.332031 317.714844 217.527344 331.5625 217.527344 C 343.144531 217.527344 350.285156 211.210938 354.496094 205.550781 L 345.03125 199.273438 C 342.578125 203.066406 338.46875 206.785156 331.621094 206.785156 C 323.925781 206.785156 320.386719 202.585938 318.195312 198.507812 L 354.898438 183.328125 L 353.027344 178.878906 C 349.484375 170.171875 341.210938 162.890625 330.265625 162.890625 Z M 330.738281 173.386719 C 335.738281 173.386719 339.339844 176.039062 340.867188 179.214844 L 316.351562 189.429688 C 315.292969 181.523438 322.8125 173.386719 330.707031 173.386719 Z M 330.738281 173.386719"/><path fill="#3CBA54" d="M 287.199219 215.910156 L 299.253906 215.910156 L 299.253906 135.472656 L 287.199219 135.472656 Z M 287.199219 215.910156"/></svg>