<svg xmlns="http://www.w3.org/2000/svg" width="375" viewBox="0 0 375 375" height="375" version="1.0"><defs><clipPath id="a"><path d="M 16.191406 16.191406 L 117 16.191406 L 117 117 L 16.191406 117 Z M 16.191406 16.191406"/></clipPath><clipPath id="b"><path d="M 258 16.191406 L 358.941406 16.191406 L 358.941406 117 L 258 117 Z M 258 16.191406"/></clipPath><clipPath id="c"><path d="M 137 16.191406 L 238 16.191406 L 238 117 L 137 117 Z M 137 16.191406"/></clipPath><clipPath id="d"><path d="M 16.191406 137 L 117 137 L 117 238 L 16.191406 238 Z M 16.191406 137"/></clipPath><clipPath id="e"><path d="M 258 137 L 358.941406 137 L 358.941406 238 L 258 238 Z M 258 137"/></clipPath><clipPath id="f"><path d="M 16.191406 258 L 117 258 L 117 358.941406 L 16.191406 358.941406 Z M 16.191406 258"/></clipPath><clipPath id="g"><path d="M 258 258 L 358.941406 258 L 358.941406 358.941406 L 258 358.941406 Z M 258 258"/></clipPath><clipPath id="h"><path d="M 137 258 L 238 258 L 238 358.941406 L 137 358.941406 Z M 137 258"/></clipPath></defs><path fill="#FFF" d="M-37.5 -37.5H412.5V412.5H-37.5z"/><path fill="#FFF" d="M-37.5 -37.5H412.5V412.5H-37.5z"/><path fill="#FFF" d="M-37.5 -37.5H412.5V412.5H-37.5z"/><g clip-path="url(#a)"><path fill="#5F6368" d="M 116.164062 66.179688 C 116.164062 67.816406 116.085938 69.449219 115.925781 71.078125 C 115.761719 72.707031 115.523438 74.324219 115.203125 75.929688 C 114.886719 77.535156 114.488281 79.121094 114.011719 80.6875 C 113.539062 82.253906 112.988281 83.796875 112.359375 85.308594 C 111.734375 86.820312 111.035156 88.296875 110.261719 89.742188 C 109.492188 91.1875 108.648438 92.589844 107.742188 93.949219 C 106.832031 95.3125 105.855469 96.625 104.820312 97.890625 C 103.78125 99.15625 102.683594 100.367188 101.523438 101.523438 C 100.367188 102.683594 99.15625 103.78125 97.890625 104.820312 C 96.625 105.855469 95.3125 106.832031 93.949219 107.742188 C 92.589844 108.648438 91.1875 109.492188 89.742188 110.261719 C 88.296875 111.035156 86.820312 111.734375 85.308594 112.359375 C 83.796875 112.988281 82.253906 113.539062 80.6875 114.011719 C 79.121094 114.488281 77.535156 114.886719 75.929688 115.203125 C 74.324219 115.523438 72.707031 115.761719 71.078125 115.925781 C 69.449219 116.085938 67.816406 116.164062 66.179688 116.164062 C 64.542969 116.164062 62.910156 116.085938 61.28125 115.925781 C 59.648438 115.761719 58.03125 115.523438 56.425781 115.203125 C 54.820312 114.886719 53.234375 114.488281 51.667969 114.011719 C 50.101562 113.539062 48.5625 112.988281 47.050781 112.359375 C 45.539062 111.734375 44.058594 111.035156 42.617188 110.261719 C 41.171875 109.492188 39.769531 108.648438 38.410156 107.742188 C 37.046875 106.832031 35.734375 105.855469 34.46875 104.820312 C 33.203125 103.78125 31.992188 102.683594 30.832031 101.523438 C 29.675781 100.367188 28.578125 99.15625 27.539062 97.890625 C 26.5 96.625 25.527344 95.3125 24.617188 93.949219 C 23.707031 92.589844 22.867188 91.1875 22.09375 89.742188 C 21.324219 88.296875 20.625 86.820312 20 85.308594 C 19.371094 83.796875 18.820312 82.253906 18.34375 80.6875 C 17.871094 79.121094 17.472656 77.535156 17.152344 75.929688 C 16.835938 74.324219 16.59375 72.707031 16.433594 71.078125 C 16.273438 69.449219 16.191406 67.816406 16.191406 66.179688 C 16.191406 64.542969 16.273438 62.910156 16.433594 61.28125 C 16.59375 59.648438 16.835938 58.03125 17.152344 56.425781 C 17.472656 54.820312 17.871094 53.234375 18.34375 51.667969 C 18.820312 50.101562 19.371094 48.5625 20 47.050781 C 20.625 45.539062 21.324219 44.058594 22.09375 42.617188 C 22.867188 41.171875 23.707031 39.769531 24.617188 38.410156 C 25.527344 37.046875 26.5 35.734375 27.539062 34.46875 C 28.578125 33.203125 29.675781 31.992188 30.832031 30.832031 C 31.992188 29.675781 33.203125 28.578125 34.46875 27.539062 C 35.734375 26.5 37.046875 25.527344 38.410156 24.617188 C 39.769531 23.707031 41.171875 22.867188 42.617188 22.09375 C 44.058594 21.324219 45.539062 20.625 47.050781 20 C 48.5625 19.371094 50.101562 18.820312 51.667969 18.34375 C 53.234375 17.871094 54.820312 17.472656 56.425781 17.152344 C 58.03125 16.835938 59.648438 16.59375 61.28125 16.433594 C 62.910156 16.273438 64.542969 16.191406 66.179688 16.191406 C 67.816406 16.191406 69.449219 16.273438 71.078125 16.433594 C 72.707031 16.59375 74.324219 16.835938 75.929688 17.152344 C 77.535156 17.472656 79.121094 17.871094 80.6875 18.34375 C 82.253906 18.820312 83.796875 19.371094 85.308594 20 C 86.820312 20.625 88.296875 21.324219 89.742188 22.09375 C 91.1875 22.867188 92.589844 23.707031 93.949219 24.617188 C 95.3125 25.527344 96.625 26.5 97.890625 27.539062 C 99.15625 28.578125 100.367188 29.675781 101.523438 30.832031 C 102.683594 31.992188 103.78125 33.203125 104.820312 34.46875 C 105.855469 35.734375 106.832031 37.046875 107.742188 38.410156 C 108.648438 39.769531 109.492188 41.171875 110.261719 42.617188 C 111.035156 44.058594 111.734375 45.539062 112.359375 47.050781 C 112.988281 48.5625 113.539062 50.101562 114.011719 51.667969 C 114.488281 53.234375 114.886719 54.820312 115.203125 56.425781 C 115.523438 58.03125 115.761719 59.648438 115.925781 61.28125 C 116.085938 62.910156 116.164062 64.542969 116.164062 66.179688 Z M 116.164062 66.179688"/></g><g clip-path="url(#b)"><path fill="#5F6368" d="M 358.941406 66.179688 C 358.941406 67.816406 358.863281 69.449219 358.703125 71.078125 C 358.542969 72.707031 358.300781 74.324219 357.984375 75.929688 C 357.664062 77.535156 357.265625 79.121094 356.789062 80.6875 C 356.316406 82.253906 355.765625 83.796875 355.136719 85.308594 C 354.511719 86.820312 353.8125 88.296875 353.039062 89.742188 C 352.269531 91.1875 351.429688 92.589844 350.519531 93.949219 C 349.609375 95.3125 348.636719 96.625 347.597656 97.890625 C 346.558594 99.15625 345.460938 100.367188 344.300781 101.523438 C 343.144531 102.683594 341.933594 103.78125 340.667969 104.820312 C 339.402344 105.855469 338.089844 106.832031 336.726562 107.742188 C 335.367188 108.648438 333.964844 109.492188 332.519531 110.261719 C 331.078125 111.035156 329.597656 111.734375 328.085938 112.359375 C 326.574219 112.988281 325.035156 113.539062 323.46875 114.011719 C 321.902344 114.488281 320.316406 114.886719 318.710938 115.203125 C 317.101562 115.523438 315.484375 115.761719 313.855469 115.925781 C 312.226562 116.085938 310.59375 116.164062 308.957031 116.164062 C 307.320312 116.164062 305.6875 116.085938 304.058594 115.925781 C 302.429688 115.761719 300.8125 115.523438 299.207031 115.203125 C 297.601562 114.886719 296.015625 114.488281 294.449219 114.011719 C 292.878906 113.539062 291.339844 112.988281 289.828125 112.359375 C 288.316406 111.734375 286.839844 111.035156 285.394531 110.261719 C 283.949219 109.492188 282.546875 108.648438 281.1875 107.742188 C 279.824219 106.832031 278.511719 105.855469 277.246094 104.820312 C 275.980469 103.78125 274.769531 102.683594 273.613281 101.523438 C 272.453125 100.367188 271.355469 99.15625 270.316406 97.890625 C 269.277344 96.625 268.304688 95.3125 267.394531 93.949219 C 266.484375 92.589844 265.644531 91.1875 264.875 89.742188 C 264.101562 88.296875 263.402344 86.820312 262.777344 85.308594 C 262.148438 83.796875 261.597656 82.253906 261.125 80.6875 C 260.648438 79.121094 260.25 77.535156 259.933594 75.929688 C 259.613281 74.324219 259.371094 72.707031 259.210938 71.078125 C 259.050781 69.449219 258.972656 67.816406 258.972656 66.179688 C 258.972656 64.542969 259.050781 62.910156 259.210938 61.28125 C 259.371094 59.648438 259.613281 58.03125 259.933594 56.425781 C 260.25 54.820312 260.648438 53.234375 261.125 51.667969 C 261.597656 50.101562 262.148438 48.5625 262.777344 47.050781 C 263.402344 45.539062 264.101562 44.058594 264.875 42.617188 C 265.644531 41.171875 266.484375 39.769531 267.394531 38.410156 C 268.304688 37.046875 269.277344 35.734375 270.316406 34.46875 C 271.355469 33.203125 272.453125 31.992188 273.613281 30.832031 C 274.769531 29.675781 275.980469 28.578125 277.246094 27.539062 C 278.511719 26.5 279.824219 25.527344 281.1875 24.617188 C 282.546875 23.707031 283.949219 22.867188 285.394531 22.09375 C 286.839844 21.324219 288.316406 20.625 289.828125 20 C 291.339844 19.371094 292.878906 18.820312 294.449219 18.34375 C 296.015625 17.871094 297.601562 17.472656 299.207031 17.152344 C 300.8125 16.835938 302.429688 16.59375 304.058594 16.433594 C 305.6875 16.273438 307.320312 16.191406 308.957031 16.191406 C 310.59375 16.191406 312.226562 16.273438 313.855469 16.433594 C 315.484375 16.59375 317.101562 16.835938 318.710938 17.152344 C 320.316406 17.472656 321.902344 17.871094 323.46875 18.34375 C 325.035156 18.820312 326.574219 19.371094 328.085938 20 C 329.597656 20.625 331.078125 21.324219 332.519531 22.09375 C 333.964844 22.867188 335.367188 23.707031 336.726562 24.617188 C 338.089844 25.527344 339.402344 26.5 340.667969 27.539062 C 341.933594 28.578125 343.144531 29.675781 344.300781 30.832031 C 345.460938 31.992188 346.558594 33.203125 347.597656 34.46875 C 348.636719 35.734375 349.609375 37.046875 350.519531 38.410156 C 351.429688 39.769531 352.269531 41.171875 353.039062 42.617188 C 353.8125 44.058594 354.511719 45.539062 355.136719 47.050781 C 355.765625 48.5625 356.316406 50.101562 356.789062 51.667969 C 357.265625 53.234375 357.664062 54.820312 357.984375 56.425781 C 358.300781 58.03125 358.542969 59.648438 358.703125 61.28125 C 358.863281 62.910156 358.941406 64.542969 358.941406 66.179688 Z M 358.941406 66.179688"/></g><g clip-path="url(#c)"><path fill="#5F6368" d="M 237.554688 66.179688 C 237.554688 67.816406 237.472656 69.449219 237.3125 71.078125 C 237.152344 72.707031 236.914062 74.324219 236.59375 75.929688 C 236.273438 77.535156 235.875 79.121094 235.402344 80.6875 C 234.925781 82.253906 234.375 83.796875 233.75 85.308594 C 233.121094 86.820312 232.421875 88.296875 231.652344 89.742188 C 230.878906 91.1875 230.039062 92.589844 229.128906 93.949219 C 228.21875 95.3125 227.246094 96.625 226.207031 97.890625 C 225.167969 99.15625 224.070312 100.367188 222.914062 101.523438 C 221.753906 102.683594 220.542969 103.78125 219.277344 104.820312 C 218.011719 105.855469 216.699219 106.832031 215.339844 107.742188 C 213.976562 108.648438 212.574219 109.492188 211.132812 110.261719 C 209.6875 111.035156 208.210938 111.734375 206.695312 112.359375 C 205.183594 112.988281 203.644531 113.539062 202.078125 114.011719 C 200.511719 114.488281 198.925781 114.886719 197.320312 115.203125 C 195.714844 115.523438 194.097656 115.761719 192.46875 115.925781 C 190.839844 116.085938 189.207031 116.164062 187.566406 116.164062 C 185.929688 116.164062 184.296875 116.085938 182.667969 115.925781 C 181.039062 115.761719 179.421875 115.523438 177.816406 115.203125 C 176.210938 114.886719 174.625 114.488281 173.058594 114.011719 C 171.492188 113.539062 169.953125 112.988281 168.4375 112.359375 C 166.925781 111.734375 165.449219 111.035156 164.003906 110.261719 C 162.5625 109.492188 161.160156 108.648438 159.796875 107.742188 C 158.4375 106.832031 157.121094 105.855469 155.859375 104.820312 C 154.59375 103.78125 153.378906 102.683594 152.222656 101.523438 C 151.066406 100.367188 149.96875 99.15625 148.929688 97.890625 C 147.890625 96.625 146.917969 95.3125 146.007812 93.949219 C 145.097656 92.589844 144.257812 91.1875 143.484375 89.742188 C 142.714844 88.296875 142.015625 86.820312 141.386719 85.308594 C 140.761719 83.796875 140.210938 82.253906 139.734375 80.6875 C 139.257812 79.121094 138.863281 77.535156 138.542969 75.929688 C 138.222656 74.324219 137.984375 72.707031 137.824219 71.078125 C 137.664062 69.449219 137.582031 67.816406 137.582031 66.179688 C 137.582031 64.542969 137.664062 62.910156 137.824219 61.28125 C 137.984375 59.648438 138.222656 58.03125 138.542969 56.425781 C 138.863281 54.820312 139.257812 53.234375 139.734375 51.667969 C 140.210938 50.101562 140.761719 48.5625 141.386719 47.050781 C 142.015625 45.539062 142.714844 44.058594 143.484375 42.617188 C 144.257812 41.171875 145.097656 39.769531 146.007812 38.410156 C 146.917969 37.046875 147.890625 35.734375 148.929688 34.46875 C 149.96875 33.203125 151.066406 31.992188 152.222656 30.832031 C 153.378906 29.675781 154.59375 28.578125 155.859375 27.539062 C 157.121094 26.5 158.4375 25.527344 159.796875 24.617188 C 161.160156 23.707031 162.5625 22.867188 164.003906 22.09375 C 165.449219 21.324219 166.925781 20.625 168.4375 20 C 169.953125 19.371094 171.492188 18.820312 173.058594 18.34375 C 174.625 17.871094 176.210938 17.472656 177.816406 17.152344 C 179.421875 16.835938 181.039062 16.59375 182.667969 16.433594 C 184.296875 16.273438 185.929688 16.191406 187.566406 16.191406 C 189.207031 16.191406 190.839844 16.273438 192.46875 16.433594 C 194.097656 16.59375 195.714844 16.835938 197.320312 17.152344 C 198.925781 17.472656 200.511719 17.871094 202.078125 18.34375 C 203.644531 18.820312 205.183594 19.371094 206.695312 20 C 208.210938 20.625 209.6875 21.324219 211.132812 22.09375 C 212.574219 22.867188 213.976562 23.707031 215.339844 24.617188 C 216.699219 25.527344 218.011719 26.5 219.277344 27.539062 C 220.542969 28.578125 221.753906 29.675781 222.914062 30.832031 C 224.070312 31.992188 225.167969 33.203125 226.207031 34.46875 C 227.246094 35.734375 228.21875 37.046875 229.128906 38.410156 C 230.039062 39.769531 230.878906 41.171875 231.652344 42.617188 C 232.421875 44.058594 233.121094 45.539062 233.75 47.050781 C 234.375 48.5625 234.925781 50.101562 235.402344 51.667969 C 235.875 53.234375 236.273438 54.820312 236.59375 56.425781 C 236.914062 58.03125 237.152344 59.648438 237.3125 61.28125 C 237.472656 62.910156 237.554688 64.542969 237.554688 66.179688 Z M 237.554688 66.179688"/></g><g clip-path="url(#d)"><path fill="#5F6368" d="M 116.164062 187.566406 C 116.164062 189.207031 116.085938 190.839844 115.925781 192.46875 C 115.761719 194.097656 115.523438 195.714844 115.203125 197.320312 C 114.886719 198.925781 114.488281 200.511719 114.011719 202.078125 C 113.539062 203.644531 112.988281 205.183594 112.359375 206.695312 C 111.734375 208.210938 111.035156 209.6875 110.261719 211.132812 C 109.492188 212.574219 108.648438 213.976562 107.742188 215.339844 C 106.832031 216.699219 105.855469 218.011719 104.820312 219.277344 C 103.78125 220.542969 102.683594 221.753906 101.523438 222.914062 C 100.367188 224.070312 99.15625 225.167969 97.890625 226.207031 C 96.625 227.246094 95.3125 228.21875 93.949219 229.128906 C 92.589844 230.039062 91.1875 230.878906 89.742188 231.652344 C 88.296875 232.421875 86.820312 233.121094 85.308594 233.75 C 83.796875 234.375 82.253906 234.925781 80.6875 235.402344 C 79.121094 235.875 77.535156 236.273438 75.929688 236.59375 C 74.324219 236.914062 72.707031 237.152344 71.078125 237.3125 C 69.449219 237.472656 67.816406 237.554688 66.179688 237.554688 C 64.542969 237.554688 62.910156 237.472656 61.28125 237.3125 C 59.648438 237.152344 58.03125 236.914062 56.425781 236.59375 C 54.820312 236.273438 53.234375 235.875 51.667969 235.402344 C 50.101562 234.925781 48.5625 234.375 47.050781 233.75 C 45.539062 233.121094 44.058594 232.421875 42.617188 231.652344 C 41.171875 230.878906 39.769531 230.039062 38.410156 229.128906 C 37.046875 228.21875 35.734375 227.246094 34.46875 226.207031 C 33.203125 225.167969 31.992188 224.070312 30.832031 222.914062 C 29.675781 221.753906 28.578125 220.542969 27.539062 219.277344 C 26.5 218.011719 25.527344 216.699219 24.617188 215.339844 C 23.707031 213.976562 22.867188 212.574219 22.09375 211.132812 C 21.324219 209.6875 20.625 208.210938 20 206.695312 C 19.371094 205.183594 18.820312 203.644531 18.34375 202.078125 C 17.871094 200.511719 17.472656 198.925781 17.152344 197.320312 C 16.835938 195.714844 16.59375 194.097656 16.433594 192.46875 C 16.273438 190.839844 16.191406 189.207031 16.191406 187.566406 C 16.191406 185.929688 16.273438 184.296875 16.433594 182.667969 C 16.59375 181.039062 16.835938 179.421875 17.152344 177.816406 C 17.472656 176.210938 17.871094 174.625 18.34375 173.058594 C 18.820312 171.492188 19.371094 169.953125 20 168.4375 C 20.625 166.925781 21.324219 165.449219 22.09375 164.003906 C 22.867188 162.5625 23.707031 161.160156 24.617188 159.796875 C 25.527344 158.4375 26.5 157.121094 27.539062 155.859375 C 28.578125 154.59375 29.675781 153.378906 30.832031 152.222656 C 31.992188 151.066406 33.203125 149.96875 34.46875 148.929688 C 35.734375 147.890625 37.046875 146.917969 38.410156 146.007812 C 39.769531 145.097656 41.171875 144.257812 42.617188 143.484375 C 44.058594 142.714844 45.539062 142.015625 47.050781 141.386719 C 48.5625 140.761719 50.101562 140.210938 51.667969 139.734375 C 53.234375 139.257812 54.820312 138.863281 56.425781 138.542969 C 58.03125 138.222656 59.648438 137.984375 61.28125 137.824219 C 62.910156 137.664062 64.542969 137.582031 66.179688 137.582031 C 67.816406 137.582031 69.449219 137.664062 71.078125 137.824219 C 72.707031 137.984375 74.324219 138.222656 75.929688 138.542969 C 77.535156 138.863281 79.121094 139.257812 80.6875 139.734375 C 82.253906 140.210938 83.796875 140.761719 85.308594 141.386719 C 86.820312 142.015625 88.296875 142.714844 89.742188 143.484375 C 91.1875 144.257812 92.589844 145.097656 93.949219 146.007812 C 95.3125 146.917969 96.625 147.890625 97.890625 148.929688 C 99.15625 149.96875 100.367188 151.066406 101.523438 152.222656 C 102.683594 153.378906 103.78125 154.59375 104.820312 155.859375 C 105.855469 157.121094 106.832031 158.4375 107.742188 159.796875 C 108.648438 161.160156 109.492188 162.5625 110.261719 164.003906 C 111.035156 165.449219 111.734375 166.925781 112.359375 168.4375 C 112.988281 169.953125 113.539062 171.492188 114.011719 173.058594 C 114.488281 174.625 114.886719 176.210938 115.203125 177.816406 C 115.523438 179.421875 115.761719 181.039062 115.925781 182.667969 C 116.085938 184.296875 116.164062 185.929688 116.164062 187.566406 Z M 116.164062 187.566406"/></g><g clip-path="url(#e)"><path fill="#5F6368" d="M 358.941406 187.566406 C 358.941406 189.207031 358.863281 190.839844 358.703125 192.46875 C 358.542969 194.097656 358.300781 195.714844 357.984375 197.320312 C 357.664062 198.925781 357.265625 200.511719 356.789062 202.078125 C 356.316406 203.644531 355.765625 205.183594 355.136719 206.695312 C 354.511719 208.210938 353.8125 209.6875 353.039062 211.132812 C 352.269531 212.574219 351.429688 213.976562 350.519531 215.339844 C 349.609375 216.699219 348.636719 218.011719 347.597656 219.277344 C 346.558594 220.542969 345.460938 221.753906 344.300781 222.914062 C 343.144531 224.070312 341.933594 225.167969 340.667969 226.207031 C 339.402344 227.246094 338.089844 228.21875 336.726562 229.128906 C 335.367188 230.039062 333.964844 230.878906 332.519531 231.652344 C 331.078125 232.421875 329.597656 233.121094 328.085938 233.75 C 326.574219 234.375 325.035156 234.925781 323.46875 235.402344 C 321.902344 235.875 320.316406 236.273438 318.710938 236.59375 C 317.101562 236.914062 315.484375 237.152344 313.855469 237.3125 C 312.226562 237.472656 310.59375 237.554688 308.957031 237.554688 C 307.320312 237.554688 305.6875 237.472656 304.058594 237.3125 C 302.429688 237.152344 300.8125 236.914062 299.207031 236.59375 C 297.601562 236.273438 296.015625 235.875 294.449219 235.402344 C 292.878906 234.925781 291.339844 234.375 289.828125 233.75 C 288.316406 233.121094 286.839844 232.421875 285.394531 231.652344 C 283.949219 230.878906 282.546875 230.039062 281.1875 229.128906 C 279.824219 228.21875 278.511719 227.246094 277.246094 226.207031 C 275.980469 225.167969 274.769531 224.070312 273.613281 222.914062 C 272.453125 221.753906 271.355469 220.542969 270.316406 219.277344 C 269.277344 218.011719 268.304688 216.699219 267.394531 215.339844 C 266.484375 213.976562 265.644531 212.574219 264.875 211.132812 C 264.101562 209.6875 263.402344 208.210938 262.777344 206.695312 C 262.148438 205.183594 261.597656 203.644531 261.125 202.078125 C 260.648438 200.511719 260.25 198.925781 259.933594 197.320312 C 259.613281 195.714844 259.371094 194.097656 259.210938 192.46875 C 259.050781 190.839844 258.972656 189.207031 258.972656 187.566406 C 258.972656 185.929688 259.050781 184.296875 259.210938 182.667969 C 259.371094 181.039062 259.613281 179.421875 259.933594 177.816406 C 260.25 176.210938 260.648438 174.625 261.125 173.058594 C 261.597656 171.492188 262.148438 169.953125 262.777344 168.4375 C 263.402344 166.925781 264.101562 165.449219 264.875 164.003906 C 265.644531 162.5625 266.484375 161.160156 267.394531 159.796875 C 268.304688 158.4375 269.277344 157.121094 270.316406 155.859375 C 271.355469 154.59375 272.453125 153.378906 273.613281 152.222656 C 274.769531 151.066406 275.980469 149.96875 277.246094 148.929688 C 278.511719 147.890625 279.824219 146.917969 281.1875 146.007812 C 282.546875 145.097656 283.949219 144.257812 285.394531 143.484375 C 286.839844 142.714844 288.316406 142.015625 289.828125 141.386719 C 291.339844 140.761719 292.878906 140.210938 294.449219 139.734375 C 296.015625 139.257812 297.601562 138.863281 299.207031 138.542969 C 300.8125 138.222656 302.429688 137.984375 304.058594 137.824219 C 305.6875 137.664062 307.320312 137.582031 308.957031 137.582031 C 310.59375 137.582031 312.226562 137.664062 313.855469 137.824219 C 315.484375 137.984375 317.101562 138.222656 318.710938 138.542969 C 320.316406 138.863281 321.902344 139.257812 323.46875 139.734375 C 325.035156 140.210938 326.574219 140.761719 328.085938 141.386719 C 329.597656 142.015625 331.078125 142.714844 332.519531 143.484375 C 333.964844 144.257812 335.367188 145.097656 336.726562 146.007812 C 338.089844 146.917969 339.402344 147.890625 340.667969 148.929688 C 341.933594 149.96875 343.144531 151.066406 344.300781 152.222656 C 345.460938 153.378906 346.558594 154.59375 347.597656 155.859375 C 348.636719 157.121094 349.609375 158.4375 350.519531 159.796875 C 351.429688 161.160156 352.269531 162.5625 353.039062 164.003906 C 353.8125 165.449219 354.511719 166.925781 355.136719 168.4375 C 355.765625 169.953125 356.316406 171.492188 356.789062 173.058594 C 357.265625 174.625 357.664062 176.210938 357.984375 177.816406 C 358.300781 179.421875 358.542969 181.039062 358.703125 182.667969 C 358.863281 184.296875 358.941406 185.929688 358.941406 187.566406 Z M 358.941406 187.566406"/></g><path fill="#5F6368" d="M 237.554688 187.566406 C 237.554688 189.207031 237.472656 190.839844 237.3125 192.46875 C 237.152344 194.097656 236.914062 195.714844 236.59375 197.320312 C 236.273438 198.925781 235.875 200.511719 235.402344 202.078125 C 234.925781 203.644531 234.375 205.183594 233.75 206.695312 C 233.121094 208.210938 232.421875 209.6875 231.652344 211.132812 C 230.878906 212.574219 230.039062 213.976562 229.128906 215.339844 C 228.21875 216.699219 227.246094 218.011719 226.207031 219.277344 C 225.167969 220.542969 224.070312 221.753906 222.914062 222.914062 C 221.753906 224.070312 220.542969 225.167969 219.277344 226.207031 C 218.011719 227.246094 216.699219 228.21875 215.339844 229.128906 C 213.976562 230.039062 212.574219 230.878906 211.132812 231.652344 C 209.6875 232.421875 208.210938 233.121094 206.695312 233.75 C 205.183594 234.375 203.644531 234.925781 202.078125 235.402344 C 200.511719 235.875 198.925781 236.273438 197.320312 236.59375 C 195.714844 236.914062 194.097656 237.152344 192.46875 237.3125 C 190.839844 237.472656 189.207031 237.554688 187.566406 237.554688 C 185.929688 237.554688 184.296875 237.472656 182.667969 237.3125 C 181.039062 237.152344 179.421875 236.914062 177.816406 236.59375 C 176.210938 236.273438 174.625 235.875 173.058594 235.402344 C 171.492188 234.925781 169.953125 234.375 168.4375 233.75 C 166.925781 233.121094 165.449219 232.421875 164.003906 231.652344 C 162.5625 230.878906 161.160156 230.039062 159.796875 229.128906 C 158.4375 228.21875 157.121094 227.246094 155.859375 226.207031 C 154.59375 225.167969 153.378906 224.070312 152.222656 222.914062 C 151.066406 221.753906 149.96875 220.542969 148.929688 219.277344 C 147.890625 218.011719 146.917969 216.699219 146.007812 215.339844 C 145.097656 213.976562 144.257812 212.574219 143.484375 211.132812 C 142.714844 209.6875 142.015625 208.210938 141.386719 206.695312 C 140.761719 205.183594 140.210938 203.644531 139.734375 202.078125 C 139.257812 200.511719 138.863281 198.925781 138.542969 197.320312 C 138.222656 195.714844 137.984375 194.097656 137.824219 192.46875 C 137.664062 190.839844 137.582031 189.207031 137.582031 187.566406 C 137.582031 185.929688 137.664062 184.296875 137.824219 182.667969 C 137.984375 181.039062 138.222656 179.421875 138.542969 177.816406 C 138.863281 176.210938 139.257812 174.625 139.734375 173.058594 C 140.210938 171.492188 140.761719 169.953125 141.386719 168.4375 C 142.015625 166.925781 142.714844 165.449219 143.484375 164.003906 C 144.257812 162.5625 145.097656 161.160156 146.007812 159.796875 C 146.917969 158.4375 147.890625 157.121094 148.929688 155.859375 C 149.96875 154.59375 151.066406 153.378906 152.222656 152.222656 C 153.378906 151.066406 154.59375 149.96875 155.859375 148.929688 C 157.121094 147.890625 158.4375 146.917969 159.796875 146.007812 C 161.160156 145.097656 162.5625 144.257812 164.003906 143.484375 C 165.449219 142.714844 166.925781 142.015625 168.4375 141.386719 C 169.953125 140.761719 171.492188 140.210938 173.058594 139.734375 C 174.625 139.257812 176.210938 138.863281 177.816406 138.542969 C 179.421875 138.222656 181.039062 137.984375 182.667969 137.824219 C 184.296875 137.664062 185.929688 137.582031 187.566406 137.582031 C 189.207031 137.582031 190.839844 137.664062 192.46875 137.824219 C 194.097656 137.984375 195.714844 138.222656 197.320312 138.542969 C 198.925781 138.863281 200.511719 139.257812 202.078125 139.734375 C 203.644531 140.210938 205.183594 140.761719 206.695312 141.386719 C 208.210938 142.015625 209.6875 142.714844 211.132812 143.484375 C 212.574219 144.257812 213.976562 145.097656 215.339844 146.007812 C 216.699219 146.917969 218.011719 147.890625 219.277344 148.929688 C 220.542969 149.96875 221.753906 151.066406 222.914062 152.222656 C 224.070312 153.378906 225.167969 154.59375 226.207031 155.859375 C 227.246094 157.121094 228.21875 158.4375 229.128906 159.796875 C 230.039062 161.160156 230.878906 162.5625 231.652344 164.003906 C 232.421875 165.449219 233.121094 166.925781 233.75 168.4375 C 234.375 169.953125 234.925781 171.492188 235.402344 173.058594 C 235.875 174.625 236.273438 176.210938 236.59375 177.816406 C 236.914062 179.421875 237.152344 181.039062 237.3125 182.667969 C 237.472656 184.296875 237.554688 185.929688 237.554688 187.566406 Z M 237.554688 187.566406"/><g clip-path="url(#f)"><path fill="#5F6368" d="M 116.164062 308.957031 C 116.164062 310.59375 116.085938 312.226562 115.925781 313.855469 C 115.761719 315.484375 115.523438 317.101562 115.203125 318.710938 C 114.886719 320.316406 114.488281 321.902344 114.011719 323.46875 C 113.539062 325.035156 112.988281 326.574219 112.359375 328.085938 C 111.734375 329.597656 111.035156 331.078125 110.261719 332.519531 C 109.492188 333.964844 108.648438 335.367188 107.742188 336.726562 C 106.832031 338.089844 105.855469 339.402344 104.820312 340.667969 C 103.78125 341.933594 102.683594 343.144531 101.523438 344.300781 C 100.367188 345.460938 99.15625 346.558594 97.890625 347.597656 C 96.625 348.636719 95.3125 349.609375 93.949219 350.519531 C 92.589844 351.429688 91.1875 352.269531 89.742188 353.039062 C 88.296875 353.8125 86.820312 354.511719 85.308594 355.136719 C 83.796875 355.765625 82.253906 356.316406 80.6875 356.789062 C 79.121094 357.265625 77.535156 357.664062 75.929688 357.984375 C 74.324219 358.300781 72.707031 358.542969 71.078125 358.703125 C 69.449219 358.863281 67.816406 358.941406 66.179688 358.941406 C 64.542969 358.941406 62.910156 358.863281 61.28125 358.703125 C 59.648438 358.542969 58.03125 358.300781 56.425781 357.984375 C 54.820312 357.664062 53.234375 357.265625 51.667969 356.789062 C 50.101562 356.316406 48.5625 355.765625 47.050781 355.136719 C 45.539062 354.511719 44.058594 353.8125 42.617188 353.039062 C 41.171875 352.269531 39.769531 351.429688 38.410156 350.519531 C 37.046875 349.609375 35.734375 348.636719 34.46875 347.597656 C 33.203125 346.558594 31.992188 345.460938 30.832031 344.300781 C 29.675781 343.144531 28.578125 341.933594 27.539062 340.667969 C 26.5 339.402344 25.527344 338.089844 24.617188 336.726562 C 23.707031 335.367188 22.867188 333.964844 22.09375 332.519531 C 21.324219 331.078125 20.625 329.597656 20 328.085938 C 19.371094 326.574219 18.820312 325.035156 18.34375 323.46875 C 17.871094 321.902344 17.472656 320.316406 17.152344 318.710938 C 16.835938 317.101562 16.59375 315.484375 16.433594 313.855469 C 16.273438 312.226562 16.191406 310.59375 16.191406 308.957031 C 16.191406 307.320312 16.273438 305.6875 16.433594 304.058594 C 16.59375 302.429688 16.835938 300.8125 17.152344 299.207031 C 17.472656 297.601562 17.871094 296.015625 18.34375 294.449219 C 18.820312 292.878906 19.371094 291.339844 20 289.828125 C 20.625 288.316406 21.324219 286.839844 22.09375 285.394531 C 22.867188 283.949219 23.707031 282.546875 24.617188 281.1875 C 25.527344 279.824219 26.5 278.511719 27.539062 277.246094 C 28.578125 275.980469 29.675781 274.769531 30.832031 273.613281 C 31.992188 272.453125 33.203125 271.355469 34.46875 270.316406 C 35.734375 269.277344 37.046875 268.304688 38.410156 267.394531 C 39.769531 266.484375 41.171875 265.644531 42.617188 264.875 C 44.058594 264.101562 45.539062 263.402344 47.050781 262.777344 C 48.5625 262.148438 50.101562 261.597656 51.667969 261.125 C 53.234375 260.648438 54.820312 260.25 56.425781 259.933594 C 58.03125 259.613281 59.648438 259.371094 61.28125 259.210938 C 62.910156 259.050781 64.542969 258.972656 66.179688 258.972656 C 67.816406 258.972656 69.449219 259.050781 71.078125 259.210938 C 72.707031 259.371094 74.324219 259.613281 75.929688 259.933594 C 77.535156 260.25 79.121094 260.648438 80.6875 261.125 C 82.253906 261.597656 83.796875 262.148438 85.308594 262.777344 C 86.820312 263.402344 88.296875 264.101562 89.742188 264.875 C 91.1875 265.644531 92.589844 266.484375 93.949219 267.394531 C 95.3125 268.304688 96.625 269.277344 97.890625 270.316406 C 99.15625 271.355469 100.367188 272.453125 101.523438 273.613281 C 102.683594 274.769531 103.78125 275.980469 104.820312 277.246094 C 105.855469 278.511719 106.832031 279.824219 107.742188 281.1875 C 108.648438 282.546875 109.492188 283.949219 110.261719 285.394531 C 111.035156 286.839844 111.734375 288.316406 112.359375 289.828125 C 112.988281 291.339844 113.539062 292.878906 114.011719 294.449219 C 114.488281 296.015625 114.886719 297.601562 115.203125 299.207031 C 115.523438 300.8125 115.761719 302.429688 115.925781 304.058594 C 116.085938 305.6875 116.164062 307.320312 116.164062 308.957031 Z M 116.164062 308.957031"/></g><g clip-path="url(#g)"><path fill="#5F6368" d="M 358.941406 308.957031 C 358.941406 310.59375 358.863281 312.226562 358.703125 313.855469 C 358.542969 315.484375 358.300781 317.101562 357.984375 318.710938 C 357.664062 320.316406 357.265625 321.902344 356.789062 323.46875 C 356.316406 325.035156 355.765625 326.574219 355.136719 328.085938 C 354.511719 329.597656 353.8125 331.078125 353.039062 332.519531 C 352.269531 333.964844 351.429688 335.367188 350.519531 336.726562 C 349.609375 338.089844 348.636719 339.402344 347.597656 340.667969 C 346.558594 341.933594 345.460938 343.144531 344.300781 344.300781 C 343.144531 345.460938 341.933594 346.558594 340.667969 347.597656 C 339.402344 348.636719 338.089844 349.609375 336.726562 350.519531 C 335.367188 351.429688 333.964844 352.269531 332.519531 353.039062 C 331.078125 353.8125 329.597656 354.511719 328.085938 355.136719 C 326.574219 355.765625 325.035156 356.316406 323.46875 356.789062 C 321.902344 357.265625 320.316406 357.664062 318.710938 357.984375 C 317.101562 358.300781 315.484375 358.542969 313.855469 358.703125 C 312.226562 358.863281 310.59375 358.941406 308.957031 358.941406 C 307.320312 358.941406 305.6875 358.863281 304.058594 358.703125 C 302.429688 358.542969 300.8125 358.300781 299.207031 357.984375 C 297.601562 357.664062 296.015625 357.265625 294.449219 356.789062 C 292.878906 356.316406 291.339844 355.765625 289.828125 355.136719 C 288.316406 354.511719 286.839844 353.8125 285.394531 353.039062 C 283.949219 352.269531 282.546875 351.429688 281.1875 350.519531 C 279.824219 349.609375 278.511719 348.636719 277.246094 347.597656 C 275.980469 346.558594 274.769531 345.460938 273.613281 344.300781 C 272.453125 343.144531 271.355469 341.933594 270.316406 340.667969 C 269.277344 339.402344 268.304688 338.089844 267.394531 336.726562 C 266.484375 335.367188 265.644531 333.964844 264.875 332.519531 C 264.101562 331.078125 263.402344 329.597656 262.777344 328.085938 C 262.148438 326.574219 261.597656 325.035156 261.125 323.46875 C 260.648438 321.902344 260.25 320.316406 259.933594 318.710938 C 259.613281 317.101562 259.371094 315.484375 259.210938 313.855469 C 259.050781 312.226562 258.972656 310.59375 258.972656 308.957031 C 258.972656 307.320312 259.050781 305.6875 259.210938 304.058594 C 259.371094 302.429688 259.613281 300.8125 259.933594 299.207031 C 260.25 297.601562 260.648438 296.015625 261.125 294.449219 C 261.597656 292.878906 262.148438 291.339844 262.777344 289.828125 C 263.402344 288.316406 264.101562 286.839844 264.875 285.394531 C 265.644531 283.949219 266.484375 282.546875 267.394531 281.1875 C 268.304688 279.824219 269.277344 278.511719 270.316406 277.246094 C 271.355469 275.980469 272.453125 274.769531 273.613281 273.613281 C 274.769531 272.453125 275.980469 271.355469 277.246094 270.316406 C 278.511719 269.277344 279.824219 268.304688 281.1875 267.394531 C 282.546875 266.484375 283.949219 265.644531 285.394531 264.875 C 286.839844 264.101562 288.316406 263.402344 289.828125 262.777344 C 291.339844 262.148438 292.878906 261.597656 294.449219 261.125 C 296.015625 260.648438 297.601562 260.25 299.207031 259.933594 C 300.8125 259.613281 302.429688 259.371094 304.058594 259.210938 C 305.6875 259.050781 307.320312 258.972656 308.957031 258.972656 C 310.59375 258.972656 312.226562 259.050781 313.855469 259.210938 C 315.484375 259.371094 317.101562 259.613281 318.710938 259.933594 C 320.316406 260.25 321.902344 260.648438 323.46875 261.125 C 325.035156 261.597656 326.574219 262.148438 328.085938 262.777344 C 329.597656 263.402344 331.078125 264.101562 332.519531 264.875 C 333.964844 265.644531 335.367188 266.484375 336.726562 267.394531 C 338.089844 268.304688 339.402344 269.277344 340.667969 270.316406 C 341.933594 271.355469 343.144531 272.453125 344.300781 273.613281 C 345.460938 274.769531 346.558594 275.980469 347.597656 277.246094 C 348.636719 278.511719 349.609375 279.824219 350.519531 281.1875 C 351.429688 282.546875 352.269531 283.949219 353.039062 285.394531 C 353.8125 286.839844 354.511719 288.316406 355.136719 289.828125 C 355.765625 291.339844 356.316406 292.878906 356.789062 294.449219 C 357.265625 296.015625 357.664062 297.601562 357.984375 299.207031 C 358.300781 300.8125 358.542969 302.429688 358.703125 304.058594 C 358.863281 305.6875 358.941406 307.320312 358.941406 308.957031 Z M 358.941406 308.957031"/></g><g clip-path="url(#h)"><path fill="#5F6368" d="M 237.554688 308.957031 C 237.554688 310.59375 237.472656 312.226562 237.3125 313.855469 C 237.152344 315.484375 236.914062 317.101562 236.59375 318.710938 C 236.273438 320.316406 235.875 321.902344 235.402344 323.46875 C 234.925781 325.035156 234.375 326.574219 233.75 328.085938 C 233.121094 329.597656 232.421875 331.078125 231.652344 332.519531 C 230.878906 333.964844 230.039062 335.367188 229.128906 336.726562 C 228.21875 338.089844 227.246094 339.402344 226.207031 340.667969 C 225.167969 341.933594 224.070312 343.144531 222.914062 344.300781 C 221.753906 345.460938 220.542969 346.558594 219.277344 347.597656 C 218.011719 348.636719 216.699219 349.609375 215.339844 350.519531 C 213.976562 351.429688 212.574219 352.269531 211.132812 353.039062 C 209.6875 353.8125 208.210938 354.511719 206.695312 355.136719 C 205.183594 355.765625 203.644531 356.316406 202.078125 356.789062 C 200.511719 357.265625 198.925781 357.664062 197.320312 357.984375 C 195.714844 358.300781 194.097656 358.542969 192.46875 358.703125 C 190.839844 358.863281 189.207031 358.941406 187.566406 358.941406 C 185.929688 358.941406 184.296875 358.863281 182.667969 358.703125 C 181.039062 358.542969 179.421875 358.300781 177.816406 357.984375 C 176.210938 357.664062 174.625 357.265625 173.058594 356.789062 C 171.492188 356.316406 169.953125 355.765625 168.4375 355.136719 C 166.925781 354.511719 165.449219 353.8125 164.003906 353.039062 C 162.5625 352.269531 161.160156 351.429688 159.796875 350.519531 C 158.4375 349.609375 157.121094 348.636719 155.859375 347.597656 C 154.59375 346.558594 153.378906 345.460938 152.222656 344.300781 C 151.066406 343.144531 149.96875 341.933594 148.929688 340.667969 C 147.890625 339.402344 146.917969 338.089844 146.007812 336.726562 C 145.097656 335.367188 144.257812 333.964844 143.484375 332.519531 C 142.714844 331.078125 142.015625 329.597656 141.386719 328.085938 C 140.761719 326.574219 140.210938 325.035156 139.734375 323.46875 C 139.257812 321.902344 138.863281 320.316406 138.542969 318.710938 C 138.222656 317.101562 137.984375 315.484375 137.824219 313.855469 C 137.664062 312.226562 137.582031 310.59375 137.582031 308.957031 C 137.582031 307.320312 137.664062 305.6875 137.824219 304.058594 C 137.984375 302.429688 138.222656 300.8125 138.542969 299.207031 C 138.863281 297.601562 139.257812 296.015625 139.734375 294.449219 C 140.210938 292.878906 140.761719 291.339844 141.386719 289.828125 C 142.015625 288.316406 142.714844 286.839844 143.484375 285.394531 C 144.257812 283.949219 145.097656 282.546875 146.007812 281.1875 C 146.917969 279.824219 147.890625 278.511719 148.929688 277.246094 C 149.96875 275.980469 151.066406 274.769531 152.222656 273.613281 C 153.378906 272.453125 154.59375 271.355469 155.859375 270.316406 C 157.121094 269.277344 158.4375 268.304688 159.796875 267.394531 C 161.160156 266.484375 162.5625 265.644531 164.003906 264.875 C 165.449219 264.101562 166.925781 263.402344 168.4375 262.777344 C 169.953125 262.148438 171.492188 261.597656 173.058594 261.125 C 174.625 260.648438 176.210938 260.25 177.816406 259.933594 C 179.421875 259.613281 181.039062 259.371094 182.667969 259.210938 C 184.296875 259.050781 185.929688 258.972656 187.566406 258.972656 C 189.207031 258.972656 190.839844 259.050781 192.46875 259.210938 C 194.097656 259.371094 195.714844 259.613281 197.320312 259.933594 C 198.925781 260.25 200.511719 260.648438 202.078125 261.125 C 203.644531 261.597656 205.183594 262.148438 206.695312 262.777344 C 208.210938 263.402344 209.6875 264.101562 211.132812 264.875 C 212.574219 265.644531 213.976562 266.484375 215.339844 267.394531 C 216.699219 268.304688 218.011719 269.277344 219.277344 270.316406 C 220.542969 271.355469 221.753906 272.453125 222.914062 273.613281 C 224.070312 274.769531 225.167969 275.980469 226.207031 277.246094 C 227.246094 278.511719 228.21875 279.824219 229.128906 281.1875 C 230.039062 282.546875 230.878906 283.949219 231.652344 285.394531 C 232.421875 286.839844 233.121094 288.316406 233.75 289.828125 C 234.375 291.339844 234.925781 292.878906 235.402344 294.449219 C 235.875 296.015625 236.273438 297.601562 236.59375 299.207031 C 236.914062 300.8125 237.152344 302.429688 237.3125 304.058594 C 237.472656 305.6875 237.554688 307.320312 237.554688 308.957031 Z M 237.554688 308.957031"/></g></svg>