<svg xmlns="http://www.w3.org/2000/svg" width="375" viewBox="0 0 375 375" height="375" version="1.0"><defs><clipPath id="a"><path d="M 54.285156 160.429688 L 332.535156 160.429688 L 332.535156 299.179688 L 54.285156 299.179688 Z M 54.285156 160.429688"/></clipPath><clipPath id="b"><path d="M 54.636719 160.429688 L 118.386719 160.429688 L 118.386719 299.179688 L 54.636719 299.179688 Z M 54.636719 160.429688"/></clipPath><clipPath id="c"><path d="M 142.707031 0 L 244.707031 0 L 244.707031 251.964844 L 142.707031 251.964844 Z M 142.707031 0"/></clipPath><clipPath id="d"><path d="M 244.691406 51.300781 L 244.691406 200.621094 C 244.691406 228.703125 221.863281 251.464844 193.699219 251.464844 C 165.535156 251.464844 142.707031 228.703125 142.707031 200.621094 L 142.707031 51.300781 C 142.707031 23.214844 165.535156 0.453125 193.699219 0.453125 C 221.863281 0.453125 244.691406 23.214844 244.691406 51.300781 Z M 244.691406 51.300781"/></clipPath></defs><path fill="#3CBA54" d="M 160.042969 288.476562 L 226.792969 288.476562 L 226.792969 422.714844 L 160.042969 422.714844 Z M 160.042969 288.476562"/><g clip-path="url(#a)"><path fill="#BE1931" d="M 193.410156 299.152344 C 270.097656 299.152344 332.503906 236.914062 332.503906 160.429688 L 306.84375 160.429688 C 306.84375 222.8125 255.957031 273.5625 193.410156 273.5625 C 130.863281 273.5625 79.976562 222.8125 79.976562 160.429688 L 54.320312 160.429688 C 54.320312 236.941406 116.726562 299.152344 193.410156 299.152344 Z M 193.410156 299.152344"/></g><g clip-path="url(#b)"><path fill="#D8BC16" d="M 193.40625 299.152344 C 270.09375 299.152344 332.496094 236.914062 332.496094 160.429688 L 306.839844 160.429688 C 306.839844 222.8125 255.953125 273.5625 193.40625 273.5625 C 130.859375 273.5625 79.972656 222.8125 79.972656 160.429688 L 54.316406 160.429688 C 54.316406 236.941406 116.722656 299.152344 193.40625 299.152344 Z M 193.40625 299.152344"/></g><g clip-path="url(#c)"><g clip-path="url(#d)"><path fill="#4285F4" d="M 142.707031 251.464844 L 244.691406 251.464844 L 244.691406 0.453125 L 142.707031 0.453125 Z M 142.707031 251.464844"/></g></g></svg>